<svg width="46" height="61" viewBox="0 0 46 61" fill="none" xmlns="http://www.w3.org/2000/svg">
<g clip-path="url(#clip0_37_120)">
<path d="M44.2061 24.0464C43.9965 23.8169 43.8801 23.5162 43.8801 23.2041C43.8801 22.892 43.9965 22.5914 44.2061 22.3619L45.1822 21.2962C45.5105 20.9393 45.7502 20.5089 45.8817 20.0404C46.0132 19.5719 46.0327 19.0787 45.9387 18.6011C45.8447 18.1235 45.6398 17.6753 45.3408 17.293C45.0418 16.9108 44.6573 16.6055 44.2187 16.4022L42.9076 15.7921C42.6272 15.6605 42.406 15.4275 42.2878 15.1393C42.1695 14.851 42.1628 14.5285 42.269 14.2355L42.7709 12.8749C42.9371 12.4187 42.9939 11.9292 42.9368 11.4465C42.8796 10.9639 42.7101 10.5017 42.442 10.0977C42.174 9.69378 41.815 9.35953 41.3944 9.12228C40.9738 8.88503 40.5036 8.75151 40.022 8.73263L38.5843 8.67694C38.2753 8.66303 37.9826 8.53296 37.7639 8.31232C37.5452 8.09169 37.4162 7.79647 37.4024 7.48475L37.3497 6.02805C37.3311 5.54149 37.1986 5.0663 36.9629 4.64138C36.7272 4.21646 36.3951 3.8539 35.9938 3.58338C35.5924 3.31286 35.1333 3.14208 34.6539 3.08502C34.1746 3.02797 33.6886 3.08626 33.2359 3.25512L31.8885 3.76136C31.5975 3.86852 31.2773 3.86166 30.9911 3.74215C30.7049 3.62264 30.4735 3.39917 30.3428 3.1159L29.7418 1.79588C29.5402 1.35357 29.2375 0.965746 28.8587 0.664177C28.4798 0.362607 28.0355 0.155877 27.5621 0.0609218C27.0888 -0.0340331 26.5999 -0.0145103 26.1355 0.117891C25.6711 0.250291 25.2443 0.491803 24.8903 0.822639L23.8377 1.80854C23.6096 2.01932 23.3114 2.13623 23.0021 2.13623C22.6928 2.13623 22.3946 2.01932 22.1665 1.80854L21.1089 0.822639C20.755 0.491798 20.3284 0.250275 19.864 0.117868C19.3997 -0.0145394 18.9109 -0.0340621 18.4376 0.0609001C17.9643 0.155862 17.5201 0.362606 17.1414 0.664185C16.7626 0.965764 16.4601 1.35359 16.2586 1.79588L15.6577 3.11464C15.5279 3.39811 15.297 3.6219 15.0111 3.7415C14.7252 3.8611 14.4051 3.86773 14.1145 3.76009L12.7645 3.25385C12.3121 3.08592 11.8266 3.0284 11.3479 3.086C10.8692 3.1436 10.4107 3.31469 10.0101 3.58526C9.60948 3.85584 9.27802 4.21823 9.04284 4.64279C8.80767 5.06736 8.67544 5.54205 8.65698 6.02805L8.59801 7.47842C8.5845 7.79023 8.45565 8.08562 8.23687 8.30631C8.0181 8.52701 7.72528 8.65699 7.41618 8.67062L5.9784 8.73263C5.49602 8.75083 5.0248 8.88417 4.60342 9.12171C4.18203 9.35926 3.82251 9.69423 3.55435 10.0991C3.28619 10.504 3.11705 10.9673 3.06081 11.4509C3.00457 11.9346 3.06284 12.4248 3.23082 12.8813L3.73266 14.2405C3.83913 14.5338 3.83244 14.8568 3.71393 15.1454C3.59541 15.4339 3.37372 15.667 3.09282 15.7985L1.78552 16.4047C1.34676 16.6078 0.96197 16.9129 0.662726 17.295C0.363482 17.6771 0.158308 18.1254 0.0640347 18.603C-0.0302382 19.0806 -0.0109235 19.5739 0.120394 20.0425C0.251712 20.5111 0.491291 20.9416 0.819478 21.2988L1.79807 22.3644C2.00624 22.5944 2.12135 22.8947 2.12065 23.2061C2.11995 23.5175 2.0035 23.8174 1.7943 24.0464L0.816968 25.112C0.488697 25.4688 0.248974 25.8991 0.11747 26.3675C-0.0140347 26.8359 -0.0335731 27.3291 0.0604578 27.8066C0.154489 28.284 0.359409 28.7322 0.658405 29.1144C0.957401 29.4965 1.34195 29.8016 1.7805 30.0048L3.0878 30.611C3.36841 30.7424 3.58989 30.9753 3.70838 31.2636C3.82687 31.5519 3.83375 31.8746 3.72765 32.1677L3.22581 33.5282C3.05786 33.9848 2.99962 34.4751 3.05586 34.9588C3.11211 35.4424 3.28124 35.9058 3.54937 36.3108C3.8175 36.7158 4.177 37.0508 4.59836 37.2885C5.01973 37.5262 5.49096 37.6597 5.97338 37.6781L7.4099 37.7326C7.7191 37.7459 8.01208 37.8758 8.23092 38.0965C8.44975 38.3173 8.57851 38.6128 8.59174 38.9248L8.6482 40.3726C8.66791 40.773 8.76553 41.1657 8.9355 41.5281L3.95849 54.074C3.89582 54.2319 3.87779 54.4043 3.90639 54.5719C3.93499 54.7396 4.0091 54.896 4.12051 55.0237C4.23191 55.1514 4.37623 55.2455 4.53743 55.2954C4.69864 55.3454 4.87042 55.3493 5.03369 55.3067L13.0631 53.2184L17.4392 60.3159C17.5214 60.4486 17.6357 60.558 17.7713 60.6339C17.9069 60.7099 18.0594 60.7498 18.2145 60.75H18.2948C18.463 60.7352 18.6238 60.6735 18.7591 60.5718C18.8945 60.4701 18.9992 60.3324 19.0614 60.1742L22.9958 50.2569L26.9303 60.1742C26.993 60.3321 27.0978 60.4695 27.233 60.5711C27.3683 60.6727 27.5288 60.7347 27.6968 60.75C27.7232 60.75 27.7508 60.75 27.7771 60.75C27.9321 60.7499 28.0845 60.71 28.2199 60.6341C28.3553 60.5581 28.4694 60.4486 28.5512 60.3159L32.9335 53.2184L40.963 55.3067C41.1263 55.3493 41.298 55.3454 41.4592 55.2954C41.6205 55.2455 41.7648 55.1514 41.8762 55.0237C41.9876 54.896 42.0617 54.7396 42.0903 54.5719C42.1189 54.4043 42.1009 54.2319 42.0382 54.074L37.0599 41.5268C37.2302 41.1645 37.3278 40.7718 37.3472 40.3713L37.4024 38.921C37.4159 38.6091 37.5448 38.3138 37.7636 38.0931C37.9823 37.8724 38.2752 37.7424 38.5843 37.7288L40.022 37.6743C40.5044 37.6556 40.9754 37.5219 41.3967 37.2841C41.8179 37.0463 42.1773 36.7113 42.4455 36.3065C42.7136 35.9016 42.8829 35.4385 42.9395 34.9549C42.9961 34.4713 42.9383 33.9811 42.7709 33.5244L42.269 32.1652C42.1629 31.8719 42.1697 31.549 42.2882 31.2605C42.4067 30.972 42.6282 30.7389 42.9089 30.6072L44.2149 30.001C44.6535 29.7979 45.038 29.4928 45.3371 29.1108C45.6362 28.7288 45.8413 28.2807 45.9356 27.8033C46.0298 27.3259 46.0106 26.8327 45.8794 26.3642C45.7482 25.8958 45.5089 25.4653 45.181 25.1082L44.2061 24.0464ZM18.0427 57.7999L14.2588 51.6719C14.1557 51.5057 14.0029 51.3769 13.8225 51.3041C13.6421 51.2313 13.4433 51.2182 13.2551 51.2669L6.32718 53.0703L10.3294 42.981C10.7017 43.1781 11.1109 43.2944 11.5306 43.3223C11.9502 43.3502 12.371 43.2891 12.7658 43.143L14.1158 42.6368C14.4062 42.5293 14.726 42.5359 15.0119 42.6553C15.2977 42.7746 15.5287 42.9979 15.6589 43.2809L16.2599 44.601C16.4617 45.043 16.7644 45.4305 17.1432 45.7317C17.522 46.033 17.9662 46.2395 18.4394 46.3343C18.9125 46.4292 19.4012 46.4096 19.8654 46.2773C20.3296 46.1449 20.7562 45.9036 21.1102 45.5729L21.1365 45.5476L22.0147 47.7713L18.0427 57.7999ZM39.6783 53.0716L32.7453 51.2681C32.5571 51.2195 32.3584 51.2325 32.178 51.3053C31.9975 51.3781 31.8447 51.5069 31.7417 51.6731L27.9578 57.8012L22.6157 44.3352C22.8227 44.2644 23.0447 44.2506 23.2588 44.2951C23.4729 44.3396 23.6714 44.4408 23.8339 44.5883L24.889 45.5742C25.4486 46.1026 26.1864 46.3967 26.9528 46.3968C27.1572 46.3966 27.3609 46.3763 27.5613 46.3361C28.0359 46.2445 28.4817 46.039 28.861 45.737C29.2403 45.435 29.542 45.0454 29.7406 44.601L30.3415 43.2822C30.4723 42.9992 30.7034 42.776 30.9893 42.6565C31.2752 42.537 31.5951 42.53 31.8859 42.6368L33.2346 43.143C33.6296 43.2893 34.0506 43.3505 34.4705 43.3226C34.8904 43.2947 35.2998 43.1783 35.6723 42.981L39.6783 53.0716ZM44.1509 27.4432C44.114 27.6361 44.0317 27.8173 43.911 27.9714C43.7903 28.1256 43.6346 28.2483 43.4571 28.3292L42.1511 28.9354C41.4534 29.262 40.9028 29.8411 40.6083 30.5579C40.3139 31.2747 40.2972 32.0769 40.5615 32.8056L41.0634 34.1661C41.1309 34.3499 41.1543 34.5473 41.1316 34.7419C41.109 34.9366 41.041 35.1232 40.9332 35.2863C40.8254 35.4493 40.6808 35.5844 40.5113 35.6802C40.3418 35.7761 40.1522 35.8302 39.9581 35.838L38.5165 35.8924C37.7483 35.925 37.0202 36.2475 36.4765 36.796C35.9328 37.3444 35.6131 38.0789 35.5807 38.8539L35.5268 40.3043C35.519 40.5 35.4655 40.6911 35.3705 40.8619C35.2755 41.0327 35.1418 41.1785 34.9803 41.2872C34.8188 41.396 34.634 41.4646 34.4412 41.4876C34.2484 41.5105 34.0529 41.4871 33.8707 41.4192L32.522 40.913C31.7989 40.6479 31.0035 40.6663 30.2932 40.9647C29.5829 41.2631 29.0096 41.8196 28.6867 42.5241L28.0858 43.8429C28.0057 44.0218 27.8841 44.1788 27.7312 44.3004C27.5784 44.4219 27.3987 44.5046 27.2075 44.5415C27.0168 44.5795 26.8198 44.5715 26.6327 44.5181C26.4456 44.4646 26.2737 44.3673 26.1311 44.2339L25.076 43.248C24.51 42.7229 23.7692 42.4315 23.0002 42.4315C22.2313 42.4315 21.4904 42.7229 20.9245 43.248L19.8681 44.2339C19.7259 44.3673 19.5543 44.4648 19.3674 44.5183C19.1806 44.5719 18.9839 44.5799 18.7934 44.5419C18.6028 44.5038 18.424 44.4208 18.2715 44.2995C18.1189 44.1782 17.9971 44.0221 17.9159 43.8441L17.3137 42.5241C16.99 41.8206 16.416 41.2656 15.7056 40.969C14.9952 40.6725 14.2002 40.6561 13.4784 40.9231L12.1285 41.4294C11.9463 41.4975 11.7508 41.5211 11.5578 41.4983C11.3649 41.4755 11.18 41.4069 11.0184 41.2981C10.8569 41.1893 10.7231 41.0434 10.6282 40.8724C10.5333 40.7014 10.4799 40.5102 10.4724 40.3144L10.4209 38.8539C10.3886 38.0789 10.0689 37.3444 9.52521 36.796C8.9815 36.2475 8.25342 35.925 7.48518 35.8924L6.04741 35.8392C5.85358 35.8314 5.66433 35.7776 5.49508 35.682C5.32583 35.5864 5.18137 35.4518 5.07349 35.2891C4.96561 35.1265 4.89736 34.9405 4.87431 34.7462C4.85126 34.5519 4.87406 34.3549 4.94085 34.1712L5.44269 32.8094C5.70662 32.0809 5.68972 31.2789 5.39533 30.5624C5.10094 29.8459 4.55053 29.267 3.85311 28.9404L2.54581 28.3342C2.36926 28.2525 2.21445 28.1297 2.09408 27.9759C1.97372 27.8221 1.89123 27.6417 1.85339 27.4495C1.81555 27.2573 1.82345 27.0588 1.87642 26.8702C1.9294 26.6817 2.02595 26.5085 2.15814 26.365L3.13547 25.2993C3.65655 24.7287 3.94582 23.9812 3.94582 23.2054C3.94582 22.4295 3.65655 21.6821 3.13547 21.1115L2.15688 20.0458C2.025 19.902 1.92875 19.7288 1.87602 19.5402C1.82329 19.3517 1.81558 19.1533 1.85353 18.9611C1.89147 18.769 1.97398 18.5887 2.09431 18.4349C2.21464 18.2812 2.36937 18.1584 2.54581 18.0765L3.85311 17.4653C4.55062 17.1384 5.10106 16.5593 5.39544 15.8426C5.68982 15.1259 5.70668 14.3237 5.44269 13.5951L4.94085 12.2345C4.87359 12.0508 4.85039 11.8536 4.87314 11.6591C4.89588 11.4645 4.96393 11.2782 5.07173 11.1153C5.17952 10.9524 5.324 10.8175 5.49335 10.7217C5.66271 10.6258 5.85213 10.5718 6.04615 10.564L7.48393 10.5095C8.25217 10.4769 8.98025 10.1544 9.52396 9.60594C10.0677 9.05747 10.3874 8.32301 10.4197 7.54803L10.4736 6.09765C10.4811 5.90183 10.5345 5.71059 10.6295 5.5396C10.7244 5.36861 10.8581 5.22274 11.0197 5.11395C11.1813 5.00516 11.3661 4.93654 11.5591 4.91372C11.752 4.8909 11.9476 4.91453 12.1297 4.98266L13.4797 5.4889C14.2019 5.75439 14.9965 5.73682 15.7065 5.43966C16.4164 5.1425 16.99 4.58739 17.3137 3.88412L17.9134 2.56537C17.994 2.38675 18.1158 2.23016 18.2686 2.10864C18.4213 1.98711 18.6007 1.90418 18.7917 1.86676C18.9821 1.82894 19.1787 1.83696 19.3656 1.89018C19.5524 1.94339 19.7241 2.0403 19.8669 2.17303L20.9232 3.15893C21.489 3.68431 22.23 3.97592 22.999 3.97592C23.768 3.97592 24.5089 3.68431 25.0747 3.15893L26.1298 2.17303C26.2727 2.04011 26.4446 1.94309 26.6317 1.88987C26.8187 1.83665 27.0156 1.82873 27.2063 1.86676C27.3972 1.90396 27.5765 1.98666 27.7292 2.10796C27.882 2.22927 28.0038 2.38566 28.0845 2.5641L28.6855 3.88539C29.0103 4.58848 29.5848 5.14312 30.2953 5.43977C31.0059 5.73641 31.8009 5.75349 32.5233 5.48764L33.8745 4.98393C34.0566 4.91608 34.2521 4.89268 34.445 4.91562C34.6378 4.93857 34.8225 5.00722 34.984 5.11595C35.1455 5.22469 35.2792 5.37044 35.3742 5.54127C35.4692 5.71211 35.5228 5.9032 35.5306 6.09892L35.5845 7.5493C35.6169 8.32427 35.9365 9.05873 36.4802 9.60721C37.024 10.1557 37.752 10.4782 38.5203 10.5108L39.9581 10.5652C40.1521 10.5731 40.3415 10.6271 40.5109 10.7229C40.6802 10.8187 40.8247 10.9536 40.9325 11.1165C41.0403 11.2795 41.1083 11.4658 41.1311 11.6603C41.1538 11.8549 41.1306 12.0521 41.0634 12.2358L40.5615 13.5976C40.2985 14.3264 40.3163 15.1283 40.6114 15.8445C40.9064 16.5607 41.4572 17.1391 42.1549 17.4653L43.4622 18.0715C43.6387 18.1532 43.7935 18.276 43.9139 18.4298C44.0343 18.5836 44.1167 18.764 44.1546 18.9562C44.1924 19.1484 44.1845 19.347 44.1315 19.5355C44.0786 19.724 43.982 19.8972 43.8498 20.0408L42.8737 21.1064C42.3529 21.6772 42.0639 22.4246 42.0639 23.2003C42.0639 23.9761 42.3529 24.7235 42.8737 25.2943L43.8523 26.3599C43.9842 26.5034 44.08 26.6765 44.132 26.865C44.1839 27.0535 44.1904 27.2517 44.1509 27.4432V27.4432Z" fill="url(#paint0_linear_37_120)"/>
<path d="M35.7763 22.2809C35.5342 22.2809 35.3021 22.3778 35.1309 22.5503C34.9596 22.7228 34.8632 22.9568 34.8629 23.201C34.8626 25.9935 33.894 28.698 32.1248 30.8458C30.3556 32.9936 27.8974 34.4494 25.176 34.961C22.4546 35.4726 19.6415 35.0078 17.2241 33.6471C14.8067 32.2863 12.9374 30.1154 11.94 27.5104C10.9425 24.9055 10.8799 22.0306 11.7628 19.3839C12.6458 16.7372 14.4187 14.4855 16.7745 13.0189C19.1302 11.5523 21.9203 10.9632 24.6614 11.3536C27.4025 11.7441 29.9218 13.0895 31.7829 15.1568C31.9481 15.3257 32.1717 15.4237 32.4068 15.4302C32.642 15.4367 32.8705 15.3514 33.0448 15.192C33.219 15.0325 33.3254 14.8114 33.3418 14.5746C33.3583 14.3379 33.2834 14.1039 33.1328 13.9216C30.9848 11.5362 28.0773 9.98386 24.914 9.53363C21.7507 9.08339 18.531 9.76361 15.8126 11.4564C13.0942 13.1492 11.0484 15.748 10.0298 18.8024C9.01119 21.8568 9.08385 25.1744 10.2352 28.1805C11.3865 31.1866 13.544 33.6916 16.3339 35.2617C19.1237 36.8317 22.3701 37.3678 25.5106 36.7771C28.6511 36.1864 31.4879 34.5061 33.5293 32.0273C35.5708 29.5485 36.6883 26.4274 36.6883 23.2048C36.6888 23.0836 36.6656 22.9636 36.62 22.8515C36.5744 22.7394 36.5073 22.6376 36.4225 22.5517C36.3378 22.4659 36.2371 22.3978 36.1262 22.3513C36.0153 22.3048 35.8963 22.2809 35.7763 22.2809V22.2809Z" fill="url(#paint1_linear_37_120)"/>
<path d="M37.395 14.4279L23.2995 28.6481L16.3779 21.6658C16.2937 21.5781 16.1931 21.5082 16.0818 21.4601C15.9706 21.412 15.851 21.3868 15.73 21.3858C15.609 21.3848 15.489 21.4081 15.377 21.4544C15.265 21.5007 15.1633 21.5689 15.0777 21.6553C14.9921 21.7416 14.9244 21.8442 14.8786 21.9572C14.8327 22.0702 14.8096 22.1912 14.8106 22.3133C14.8116 22.4353 14.8366 22.556 14.8843 22.6682C14.9319 22.7804 15.0012 22.8819 15.0882 22.9669L22.6547 30.5997C22.8257 30.7722 23.0577 30.8691 23.2995 30.8691C23.5414 30.8691 23.7734 30.7722 23.9444 30.5997L38.686 15.7289C38.7707 15.6434 38.8378 15.5419 38.8836 15.4302C38.9294 15.3185 38.953 15.1988 38.9529 15.0779C38.9528 14.9571 38.9292 14.8374 38.8833 14.7257C38.8374 14.6141 38.7701 14.5127 38.6853 14.4272C38.6006 14.3418 38.5 14.2741 38.3892 14.2278C38.2785 14.1816 38.1599 14.1579 38.04 14.158C37.9202 14.158 37.8016 14.1819 37.6909 14.2282C37.5802 14.2745 37.4797 14.3423 37.395 14.4279V14.4279Z" fill="url(#paint2_linear_37_120)"/>
</g>
<defs>
<linearGradient id="paint0_linear_37_120" x1="22.9996" y1="0.00170898" x2="22.9996" y2="60.75" gradientUnits="userSpaceOnUse">
<stop stop-color="#9F78FF"/>
<stop offset="1" stop-color="#F067FF"/>
</linearGradient>
<linearGradient id="paint1_linear_37_120" x1="23.0019" y1="9.39819" x2="23.0019" y2="37.0111" gradientUnits="userSpaceOnUse">
<stop stop-color="#9F78FF"/>
<stop offset="1" stop-color="#F067FF"/>
</linearGradient>
<linearGradient id="paint2_linear_37_120" x1="26.8817" y1="14.158" x2="26.8817" y2="30.8691" gradientUnits="userSpaceOnUse">
<stop stop-color="#9F78FF"/>
<stop offset="1" stop-color="#F067FF"/>
</linearGradient>
<clipPath id="clip0_37_120">
<rect width="46" height="60.75" fill="white"/>
</clipPath>
</defs>
</svg>
