<svg width="58" height="61" viewBox="0 0 58 61" fill="none" xmlns="http://www.w3.org/2000/svg">
<g clip-path="url(#clip0_39_268)">
<path d="M45.5708 60.076H1.6385C0.734969 60.076 0 59.3029 0 58.3517V39.2145C0 38.2644 0.734969 37.4922 1.6385 37.4922H45.5708C46.4739 37.4922 47.2088 38.2644 47.2088 39.2145V58.3517C47.2093 59.3029 46.4739 60.076 45.5708 60.076ZM1.8125 58.1776H45.3968V39.3906H1.8125V58.1776Z" fill="url(#paint0_linear_39_268)"/>
<path d="M8.04584 42.7676H4.60254V44.666H8.04584V42.7676Z" fill="url(#paint1_linear_39_268)"/>
<path d="M13.8061 42.7676H10.3633V44.666H13.8061V42.7676Z" fill="url(#paint2_linear_39_268)"/>
<path d="M19.5654 42.7676H16.123V44.666H19.5654V42.7676Z" fill="url(#paint3_linear_39_268)"/>
<path d="M25.3266 42.7676H21.8838V44.666H25.3266V42.7676Z" fill="url(#paint4_linear_39_268)"/>
<path d="M31.0869 42.7676H27.6445V44.666H31.0869V42.7676Z" fill="url(#paint5_linear_39_268)"/>
<path d="M36.8463 42.7676H33.4053V44.666H36.8463V42.7676Z" fill="url(#paint6_linear_39_268)"/>
<path d="M42.606 42.7676H39.1641V44.666H42.606V42.7676Z" fill="url(#paint7_linear_39_268)"/>
<path d="M8.04584 47.8354H4.60254V49.7339H8.04584V47.8354Z" fill="url(#paint8_linear_39_268)"/>
<path d="M13.8061 47.8354H10.3633V49.7339H13.8061V47.8354Z" fill="url(#paint9_linear_39_268)"/>
<path d="M19.5654 47.8354H16.123V49.7339H19.5654V47.8354Z" fill="url(#paint10_linear_39_268)"/>
<path d="M25.3266 47.8354H21.8838V49.7339H25.3266V47.8354Z" fill="url(#paint11_linear_39_268)"/>
<path d="M31.0869 47.8354H27.6445V49.7339H31.0869V47.8354Z" fill="url(#paint12_linear_39_268)"/>
<path d="M36.8463 47.8354H33.4053V49.7339H36.8463V47.8354Z" fill="url(#paint13_linear_39_268)"/>
<path d="M42.606 47.8354H39.1641V49.7339H42.606V47.8354Z" fill="url(#paint14_linear_39_268)"/>
<path d="M8.04584 52.9023H4.60254V54.8008H8.04584V52.9023Z" fill="url(#paint15_linear_39_268)"/>
<path d="M13.8061 52.9023H10.3633V54.8008H13.8061V52.9023Z" fill="url(#paint16_linear_39_268)"/>
<path d="M36.9002 52.9023H16.123V54.8008H36.9002V52.9023Z" fill="url(#paint17_linear_39_268)"/>
<path d="M42.606 52.9023H39.1641V54.8008H42.606V52.9023Z" fill="url(#paint18_linear_39_268)"/>
<path d="M44.4528 31.7987H42.6403V29.9002H44.4528V31.7987ZM40.8278 31.7987H39.0153V29.9002H40.8278V31.7987ZM37.2028 31.7987H35.3903V29.9002H37.2028V31.7987ZM33.5778 31.7987H31.7653V29.9002H33.5778V31.7987ZM29.9528 31.7987H28.1403V29.9002H29.9528V31.7987ZM26.3278 31.7987H24.5153V29.9002H26.3278V31.7987ZM22.7028 31.7987H20.8903V29.9002H22.7028V31.7987ZM19.0778 31.7987H17.2653V29.9002H19.0778V31.7987ZM15.4528 31.7987H13.6403V29.9002H15.4528V31.7987ZM11.8278 31.7987H10.6565C10.4191 31.7987 10.1834 31.7892 9.95008 31.7716L10.0824 29.8779C10.2713 29.8926 10.463 29.9002 10.656 29.9002H11.8274V31.7987H11.8278ZM7.98352 31.4029C7.34416 31.2092 6.72156 30.9439 6.13295 30.6141L6.988 28.9401C7.46514 29.2073 7.96992 29.4228 8.48739 29.5794L7.98352 31.4029ZM4.4795 29.4432C3.97019 28.9966 3.50302 28.4926 3.09022 27.9453L4.51258 26.7683C4.8488 27.214 5.22942 27.6245 5.64403 27.988L4.4795 29.4432ZM2.01948 26.1836C1.72133 25.5609 1.48344 24.904 1.31216 24.2306L3.06348 23.7422C3.20305 24.2904 3.39653 24.8257 3.63941 25.3321L2.01948 26.1836ZM0.997234 22.1703C0.986359 21.9709 0.980469 21.7697 0.980469 21.5671C0.980469 21.0725 1.01445 20.5746 1.08106 20.0877L2.87498 20.3573C2.82061 20.755 2.79297 21.1617 2.79297 21.5666C2.79297 21.7327 2.7975 21.8974 2.80656 22.0611L0.997234 22.1703ZM3.26784 18.7075L1.56273 18.063C1.78884 17.408 2.07975 16.7749 2.4273 16.1812L3.972 17.1745C3.6888 17.6577 3.45181 18.1736 3.26784 18.7075ZM4.95891 15.8224L3.6385 14.5219C4.0948 14.0136 4.60184 13.5537 5.14605 13.1546L6.18597 14.7094C5.74281 15.0341 5.33047 15.4085 4.95891 15.8224ZM7.60289 13.8841L6.89148 12.138C7.50502 11.8637 8.14755 11.6567 8.80141 11.5224L9.15031 13.3853C8.62061 13.4944 8.09997 13.662 7.60289 13.8841ZM19.8395 13.2329H18.027V11.3345H19.8395V13.2329ZM16.2145 13.2329H14.402V11.3345H16.2145V13.2329ZM12.5895 13.2329H10.777V11.3345H12.5895V13.2329Z" fill="url(#paint19_linear_39_268)"/>
<path d="M57.9249 38.1727L56.1318 37.8946C56.169 37.6322 56.1876 37.3654 56.1876 37.1011H58.0001C58.0001 37.458 57.9747 37.8187 57.9249 38.1727Z" fill="url(#paint20_linear_39_268)"/>
<path d="M50.5339 44.3019H48.7109V42.4034H50.5339V44.3019ZM52.5294 44.1628L52.171 42.3014C52.6744 42.1956 53.1584 42.0076 53.6088 41.7423L54.4955 43.3977C53.8802 43.7594 53.2186 44.0171 52.5294 44.1628ZM56.1417 42.0446L54.8186 40.748C55.172 40.3522 55.4648 39.9046 55.6882 39.4158L57.3226 40.2368C57.0194 40.8999 56.622 41.5078 56.1417 42.0446Z" fill="url(#paint21_linear_39_268)"/>
<path d="M47.0602 42.4033H46.168V44.3018H47.0602V42.4033Z" fill="url(#paint22_linear_39_268)"/>
<path d="M10.9334 22.2899C9.24863 22.2899 7.87793 20.8437 7.87793 19.0663C7.87793 17.2889 9.24863 15.8428 10.9334 15.8428C12.6181 15.8428 13.9888 17.2889 13.9888 19.0663C13.9888 20.8437 12.6181 22.2899 10.9334 22.2899ZM10.9334 17.7412C10.2482 17.7412 9.69043 18.3354 9.69043 19.0663C9.69043 19.7972 10.2478 20.3914 10.9334 20.3914C11.6189 20.3914 12.1763 19.7972 12.1763 19.0663C12.1763 18.3354 11.6189 17.7412 10.9334 17.7412Z" fill="url(#paint23_linear_39_268)"/>
<path d="M10.9328 27.1992C9.2993 27.1992 7.74191 26.5438 6.54747 25.3539L6.26562 25.0734V24.4806C6.26562 22.7032 7.63678 21.2571 9.32195 21.2571H12.5455C14.2298 21.2571 15.6 22.7032 15.6 24.4806V25.0734L15.3186 25.3539C14.1255 26.5438 12.5681 27.1992 10.9328 27.1992ZM8.0967 24.2528C8.90508 24.931 9.89833 25.3008 10.9328 25.3008C11.9687 25.3008 12.9619 24.9315 13.7694 24.2533C13.6679 23.6306 13.1577 23.1555 12.5455 23.1555H9.32195C8.70888 23.1555 8.1982 23.6301 8.0967 24.2528Z" fill="url(#paint24_linear_39_268)"/>
<path d="M52.5696 31.5116C50.8849 31.5116 49.5146 30.0659 49.5146 28.2885C49.5146 26.5111 50.8849 25.0649 52.5696 25.0649C54.2543 25.0649 55.625 26.5111 55.625 28.2885C55.625 30.0659 54.2539 31.5116 52.5696 31.5116ZM52.5696 26.9634C51.8845 26.9634 51.3271 27.5576 51.3271 28.2885C51.3271 29.0194 51.8845 29.6136 52.5696 29.6136C53.2552 29.6136 53.8125 29.0194 53.8125 28.2885C53.8125 27.5576 53.2547 26.9634 52.5696 26.9634Z" fill="url(#paint25_linear_39_268)"/>
<path d="M52.57 36.4194C50.9356 36.4194 49.3777 35.764 48.1837 34.5746L47.9023 34.2936V33.7018C47.9023 31.9239 49.273 30.4778 50.9582 30.4778H54.1813C55.866 30.4778 57.2363 31.9239 57.2363 33.7013V34.2946L56.9553 34.5756C55.7632 35.764 54.2053 36.4194 52.57 36.4194ZM49.733 33.4735C50.5413 34.1522 51.5346 34.521 52.57 34.521C53.6058 34.521 54.5991 34.1522 55.4061 33.4745C55.3046 32.8513 54.7944 32.3762 54.1818 32.3762H50.9587C50.3451 32.3762 49.8345 32.8508 49.733 33.4735Z" fill="url(#paint26_linear_39_268)"/>
<path d="M33.5007 25.7883C26.954 25.7883 21.6279 20.1551 21.6279 13.2315C21.6279 6.30744 26.954 0.673828 33.5007 0.673828C40.0466 0.673828 45.3721 6.30744 45.3721 13.2315C45.3721 20.1556 40.0466 25.7883 33.5007 25.7883ZM33.5007 2.57227C27.9536 2.57227 23.4404 7.35396 23.4404 13.2315C23.4404 19.1086 27.9531 23.8898 33.5007 23.8898C39.047 23.8898 43.5596 19.1086 43.5596 13.2315C43.5596 7.35443 39.047 2.57227 33.5007 2.57227Z" fill="url(#paint27_linear_39_268)"/>
<path d="M33.5009 16.438C31.238 16.438 29.3965 14.4935 29.3965 12.1034C29.3965 9.71327 31.2375 7.7688 33.5009 7.7688C35.7642 7.7688 37.6057 9.71327 37.6057 12.1034C37.6057 14.4935 35.7642 16.438 33.5009 16.438ZM33.5009 9.66771C32.2371 9.66771 31.209 10.7607 31.209 12.1039C31.209 13.447 32.2371 14.5401 33.5009 14.5401C34.7647 14.5401 35.7932 13.447 35.7932 12.1039C35.7932 10.7607 34.7647 9.66771 33.5009 9.66771Z" fill="url(#paint28_linear_39_268)"/>
<path d="M28.8096 23.1562H26.9971V19.2506C26.9971 16.8605 28.8381 14.916 31.1019 14.916H35.8987C38.1621 14.916 40.0036 16.8605 40.0036 19.2506V23.1557H38.1911V19.2506C38.1911 17.907 37.1625 16.8145 35.8987 16.8145H31.1019C29.8382 16.8145 28.8096 17.9075 28.8096 19.2506V23.1562Z" fill="url(#paint29_linear_39_268)"/>
</g>
<defs>
<linearGradient id="paint0_linear_39_268" x1="23.6044" y1="37.4922" x2="23.6044" y2="60.076" gradientUnits="userSpaceOnUse">
<stop stop-color="#9F78FF"/>
<stop offset="1" stop-color="#F067FF"/>
</linearGradient>
<linearGradient id="paint1_linear_39_268" x1="6.32419" y1="42.7676" x2="6.32419" y2="44.666" gradientUnits="userSpaceOnUse">
<stop stop-color="#9F78FF"/>
<stop offset="1" stop-color="#F067FF"/>
</linearGradient>
<linearGradient id="paint2_linear_39_268" x1="12.0847" y1="42.7676" x2="12.0847" y2="44.666" gradientUnits="userSpaceOnUse">
<stop stop-color="#9F78FF"/>
<stop offset="1" stop-color="#F067FF"/>
</linearGradient>
<linearGradient id="paint3_linear_39_268" x1="17.8442" y1="42.7676" x2="17.8442" y2="44.666" gradientUnits="userSpaceOnUse">
<stop stop-color="#9F78FF"/>
<stop offset="1" stop-color="#F067FF"/>
</linearGradient>
<linearGradient id="paint4_linear_39_268" x1="23.6052" y1="42.7676" x2="23.6052" y2="44.666" gradientUnits="userSpaceOnUse">
<stop stop-color="#9F78FF"/>
<stop offset="1" stop-color="#F067FF"/>
</linearGradient>
<linearGradient id="paint5_linear_39_268" x1="29.3657" y1="42.7676" x2="29.3657" y2="44.666" gradientUnits="userSpaceOnUse">
<stop stop-color="#9F78FF"/>
<stop offset="1" stop-color="#F067FF"/>
</linearGradient>
<linearGradient id="paint6_linear_39_268" x1="35.1258" y1="42.7676" x2="35.1258" y2="44.666" gradientUnits="userSpaceOnUse">
<stop stop-color="#9F78FF"/>
<stop offset="1" stop-color="#F067FF"/>
</linearGradient>
<linearGradient id="paint7_linear_39_268" x1="40.885" y1="42.7676" x2="40.885" y2="44.666" gradientUnits="userSpaceOnUse">
<stop stop-color="#9F78FF"/>
<stop offset="1" stop-color="#F067FF"/>
</linearGradient>
<linearGradient id="paint8_linear_39_268" x1="6.32419" y1="47.8354" x2="6.32419" y2="49.7339" gradientUnits="userSpaceOnUse">
<stop stop-color="#9F78FF"/>
<stop offset="1" stop-color="#F067FF"/>
</linearGradient>
<linearGradient id="paint9_linear_39_268" x1="12.0847" y1="47.8354" x2="12.0847" y2="49.7339" gradientUnits="userSpaceOnUse">
<stop stop-color="#9F78FF"/>
<stop offset="1" stop-color="#F067FF"/>
</linearGradient>
<linearGradient id="paint10_linear_39_268" x1="17.8442" y1="47.8354" x2="17.8442" y2="49.7339" gradientUnits="userSpaceOnUse">
<stop stop-color="#9F78FF"/>
<stop offset="1" stop-color="#F067FF"/>
</linearGradient>
<linearGradient id="paint11_linear_39_268" x1="23.6052" y1="47.8354" x2="23.6052" y2="49.7339" gradientUnits="userSpaceOnUse">
<stop stop-color="#9F78FF"/>
<stop offset="1" stop-color="#F067FF"/>
</linearGradient>
<linearGradient id="paint12_linear_39_268" x1="29.3657" y1="47.8354" x2="29.3657" y2="49.7339" gradientUnits="userSpaceOnUse">
<stop stop-color="#9F78FF"/>
<stop offset="1" stop-color="#F067FF"/>
</linearGradient>
<linearGradient id="paint13_linear_39_268" x1="35.1258" y1="47.8354" x2="35.1258" y2="49.7339" gradientUnits="userSpaceOnUse">
<stop stop-color="#9F78FF"/>
<stop offset="1" stop-color="#F067FF"/>
</linearGradient>
<linearGradient id="paint14_linear_39_268" x1="40.885" y1="47.8354" x2="40.885" y2="49.7339" gradientUnits="userSpaceOnUse">
<stop stop-color="#9F78FF"/>
<stop offset="1" stop-color="#F067FF"/>
</linearGradient>
<linearGradient id="paint15_linear_39_268" x1="6.32419" y1="52.9023" x2="6.32419" y2="54.8008" gradientUnits="userSpaceOnUse">
<stop stop-color="#9F78FF"/>
<stop offset="1" stop-color="#F067FF"/>
</linearGradient>
<linearGradient id="paint16_linear_39_268" x1="12.0847" y1="52.9023" x2="12.0847" y2="54.8008" gradientUnits="userSpaceOnUse">
<stop stop-color="#9F78FF"/>
<stop offset="1" stop-color="#F067FF"/>
</linearGradient>
<linearGradient id="paint17_linear_39_268" x1="26.5116" y1="52.9023" x2="26.5116" y2="54.8008" gradientUnits="userSpaceOnUse">
<stop stop-color="#9F78FF"/>
<stop offset="1" stop-color="#F067FF"/>
</linearGradient>
<linearGradient id="paint18_linear_39_268" x1="40.885" y1="52.9023" x2="40.885" y2="54.8008" gradientUnits="userSpaceOnUse">
<stop stop-color="#9F78FF"/>
<stop offset="1" stop-color="#F067FF"/>
</linearGradient>
<linearGradient id="paint19_linear_39_268" x1="22.7166" y1="11.3345" x2="22.7166" y2="31.7987" gradientUnits="userSpaceOnUse">
<stop stop-color="#9F78FF"/>
<stop offset="1" stop-color="#F067FF"/>
</linearGradient>
<linearGradient id="paint20_linear_39_268" x1="57.066" y1="37.1011" x2="57.066" y2="38.1727" gradientUnits="userSpaceOnUse">
<stop stop-color="#9F78FF"/>
<stop offset="1" stop-color="#F067FF"/>
</linearGradient>
<linearGradient id="paint21_linear_39_268" x1="53.0168" y1="39.4158" x2="53.0168" y2="44.3019" gradientUnits="userSpaceOnUse">
<stop stop-color="#9F78FF"/>
<stop offset="1" stop-color="#F067FF"/>
</linearGradient>
<linearGradient id="paint22_linear_39_268" x1="46.6141" y1="42.4033" x2="46.6141" y2="44.3018" gradientUnits="userSpaceOnUse">
<stop stop-color="#9F78FF"/>
<stop offset="1" stop-color="#F067FF"/>
</linearGradient>
<linearGradient id="paint23_linear_39_268" x1="10.9334" y1="15.8428" x2="10.9334" y2="22.2899" gradientUnits="userSpaceOnUse">
<stop stop-color="#9F78FF"/>
<stop offset="1" stop-color="#F067FF"/>
</linearGradient>
<linearGradient id="paint24_linear_39_268" x1="10.9328" y1="21.2571" x2="10.9328" y2="27.1992" gradientUnits="userSpaceOnUse">
<stop stop-color="#9F78FF"/>
<stop offset="1" stop-color="#F067FF"/>
</linearGradient>
<linearGradient id="paint25_linear_39_268" x1="52.5698" y1="25.0649" x2="52.5698" y2="31.5116" gradientUnits="userSpaceOnUse">
<stop stop-color="#9F78FF"/>
<stop offset="1" stop-color="#F067FF"/>
</linearGradient>
<linearGradient id="paint26_linear_39_268" x1="52.5693" y1="30.4778" x2="52.5693" y2="36.4194" gradientUnits="userSpaceOnUse">
<stop stop-color="#9F78FF"/>
<stop offset="1" stop-color="#F067FF"/>
</linearGradient>
<linearGradient id="paint27_linear_39_268" x1="33.5" y1="0.673828" x2="33.5" y2="25.7883" gradientUnits="userSpaceOnUse">
<stop stop-color="#9F78FF"/>
<stop offset="1" stop-color="#F067FF"/>
</linearGradient>
<linearGradient id="paint28_linear_39_268" x1="33.5011" y1="7.7688" x2="33.5011" y2="16.438" gradientUnits="userSpaceOnUse">
<stop stop-color="#9F78FF"/>
<stop offset="1" stop-color="#F067FF"/>
</linearGradient>
<linearGradient id="paint29_linear_39_268" x1="33.5003" y1="14.916" x2="33.5003" y2="23.1562" gradientUnits="userSpaceOnUse">
<stop stop-color="#9F78FF"/>
<stop offset="1" stop-color="#F067FF"/>
</linearGradient>
<clipPath id="clip0_39_268">
<rect width="58" height="60.75" fill="white"/>
</clipPath>
</defs>
</svg>
